<svg id="Layer_5" enable-background="new 0 0 64 64" height="512" viewBox="0 0 64 64" width="512" xmlns="http://www.w3.org/2000/svg"><g><g><path d="m34 18v8h-2-6v-8h6z" fill="#fcd770"/><path d="m50 18v4h-2v2h-4c-.73 0-1.41.2-2 .54v-6.54h6z" fill="#fcd770"/><path d="m50 10h6v8h-6-2v-8z" fill="#fcd770"/><path d="m50 2v8h-2-6v-8z" fill="#fcd770"/><path d="m34 10h6v8h-6-2v-8z" fill="#fcd770"/><path d="m34 2v8h-2-6v-8z" fill="#fcd770"/><path d="m18 10h6v8h-6-2v-8z" fill="#fcd770"/><path d="m18 2v8h-2-6v-8z" fill="#fcd770"/><path d="m2 10h6v8h-6z" fill="#fcd770"/><path d="m18 18v8h-2-6v-8h6z" fill="#fcd770"/><path d="m2 26h6v8h-6z" fill="#fcd770"/><path d="m18 26h6v8h-8v-8z" fill="#fcd770"/><path d="m34 26h6.54c-.34.59-.54 1.27-.54 2v11c0 .55-.45 1-1 1h-3v-4.52c0-1.92-1.56-3.48-3.48-3.48-.17 0-.35.01-.52.04v-6.04z" fill="#fcd770"/><path d="m56 34v8h-12.54c.34-.59.54-1.27.54-2v-6z" fill="#fcd770"/><g fill="#ffeaa7"><path d="m24 34h1.49l-17.58 5.41c-1.13.35-1.91 1.4-1.91 2.59h-4v-8h6 8z"/><path d="m56 30v4h-12v-5c0-.55.45-1 1-1h3v2z"/><path d="m26 26h6v6.04c-.17.02-.34.06-.5.11l-6 1.85h-.01-1.49v-8z"/><path d="m10 26h6v8h-8v-8z"/><path d="m50 18h6v4h-6z"/><path d="m40 18h2v6.54c-.61.35-1.11.85-1.46 1.46h-6.54v-8z"/><path d="m26 18v8h-2-6v-8h6z"/><path d="m10 18v8h-2-6v-8h6z"/><path d="m10 10h6v8h-6-2v-8z"/><path d="m26 10h6v8h-6-2v-8z"/><path d="m42 10h6v8h-6-2v-8z"/><path d="m50 2h6v8h-6z"/><path d="m42 2v8h-2-6v-8z"/><path d="m26 2v8h-2-6v-8z"/><path d="m10 2v8h-2-6v-8z"/></g><path d="m50 22h6 2c2.21 0 4 1.79 4 4 0 1.1-.45 2.1-1.17 2.83-.73.72-1.73 1.17-2.83 1.17h-2-8v-2-4-2z" fill="#b27946"/><path d="m48 24v4h-3c-.55 0-1 .45-1 1v5 6c0 .73-.2 1.41-.54 2-.69 1.2-1.98 2-3.46 2h-4-3.89c-.99 0-1.92-.68-2.08-1.66-.21-1.25.76-2.34 1.97-2.34h4 3c.55 0 1-.45 1-1v-11c0-.73.2-1.41.54-2 .35-.61.85-1.11 1.46-1.46.59-.34 1.27-.54 2-.54z" fill="#969faa"/><path d="m36 47v1.52c0 .96-.39 1.83-1.02 2.46s-1.5 1.02-2.46 1.02c-.34 0-.69-.05-1.02-.15l-23.59-7.26c-1.13-.35-1.91-1.4-1.91-2.59s.78-2.24 1.91-2.59l17.58-5.41h.01l6-1.85c.16-.05.33-.09.5-.11.17-.03.35-.04.52-.04 1.92 0 3.48 1.56 3.48 3.48v4.52h-4c-1.21 0-2.18 1.09-1.97 2.34.16.98 1.09 1.66 2.08 1.66h3.89z" fill="#e6e9ed"/><path d="m36 52v.52c0 1.92-1.56 3.48-3.48 3.48-.34 0-.69-.05-1.02-.15l-23.59-7.26c-1.13-.35-1.91-1.4-1.91-2.59v-1-3c0 1.19.78 2.24 1.91 2.59l23.59 7.26c.33.1.68.15 1.02.15.96 0 1.83-.39 2.46-1.02s1.02-1.5 1.02-2.46z" fill="#ccd1d9"/><path d="m43.41 58.59c.37.36.59.86.59 1.41 0 1.1-.9 2-2 2h-26c-1.1 0-2-.9-2-2v-4c0-.55-.22-1.05-.59-1.41-.36-.37-.86-.59-1.41-.59-1.1 0-2 .9-2 2v2c0 .55-.22 1.05-.59 1.41-.36.37-.86.59-1.41.59-1.1 0-2-.9-2-2v-12c0 1.19.78 2.24 1.91 2.59l23.59 7.26c.33.1.68.15 1.02.15 1.92 0 3.48-1.56 3.48-3.48v3.48c0 1.1.9 2 2 2h4c.55 0 1.05.22 1.41.59z" fill="#5cd6b3"/></g><path d="m58 21h-1v-20h-56v42h4v2 1 12c0 1.654 1.346 3 3 3s3-1.346 3-3v-2c0-.552.448-1 1-1s1 .448 1 1v4c0 1.654 1.346 3 3 3h26c1.654 0 3-1.346 3-3s-1.346-3-3-3h-4c-.552 0-1-.448-1-1v-3.478-.522-3.478-1.522-2h3c1.627 0 3.061-.793 3.974-2h13.026v-12h1c2.757 0 5-2.243 5-5s-2.243-5-5-5zm-7 0v-2h4v2zm-4 0v2h-3c-.342 0-.677.035-1 .101v-4.101h6v2zm-14 10.048v-4.048h6.101c-.066.323-.101.658-.101 1v11h-2v-3.522c0-2.306-1.758-4.188-4-4.43zm22-14.048h-6v-6h6zm-28 8v-6h6v6zm-2-8v-6h6v6zm-2 0h-6v-6h6zm-8 0h-6v-6h6zm2 2v6h-6v-6zm2 0h6v6h-6zm14-2v-6h6v6zm8 0v-6h6v6zm2-8v-6h6v6zm-2 0h-6v-6h6zm-8 0h-6v-6h6zm-8 0h-6v-6h6zm-8 0h-6v-6h6zm-10 8h-4v-6h4zm2 2v6h-6v-6zm-2 8v6h-4v-6zm2 0h6v6h-6zm8 0h6v6h-6zm8.348 6h-.348v-6h6v4.261zm14.678-8h-5.026v-6h6v5.026c-.369.279-.695.605-.974.974zm14.974-16h-4v-6h4zm-46-6v6h-6v-6zm-6 32h15.848l-11.231 3.456c-1.234.38-2.14 1.35-2.472 2.544h-2.145zm29.522 20c-.247 0-.492-.037-.729-.109l-23.588-7.259c-.721-.222-1.205-.878-1.205-1.632v-.713c.196.101.4.19.617.257l23.59 7.259c.428.131.87.197 1.315.197.916 0 1.767-.279 2.478-.753v.275c0 1.367-1.111 2.478-2.478 2.478zm5.478 4h4c.552 0 1 .448 1 1s-.448 1-1 1h-26c-.552 0-1-.448-1-1v-4c0-1.654-1.346-3-3-3s-3 1.346-3 3v2c0 .552-.448 1-1 1s-1-.448-1-1v-8.713c.196.101.4.19.617.257l23.59 7.259c.428.131.87.197 1.315.197.926 0 1.787-.282 2.501-.766.123 1.544 1.403 2.766 2.977 2.766zm-3-12v1.522c0 1.367-1.111 2.478-2.478 2.478-.247 0-.492-.037-.729-.109l-23.588-7.259c-.721-.222-1.205-.878-1.205-1.632s.484-1.41 1.205-1.632l23.588-7.259c.237-.072.482-.109.729-.109 1.367 0 2.478 1.111 2.478 2.478v3.522h-3c-.882 0-1.716.387-2.288 1.062-.571.673-.815 1.562-.67 2.44.234 1.424 1.555 2.498 3.071 2.498h2.887zm8-7c0 1.654-1.346 3-3 3h-7.887c-.54 0-1.022-.362-1.099-.824-.05-.302.029-.593.223-.821.192-.226.469-.355.763-.355h7c1.103 0 2-.897 2-2v-11c0-1.654 1.346-3 3-3h3v2h-2c-1.103 0-2 .897-2 2zm1.899 1c.066-.323.101-.658.101-1v-5h10v6zm10.101-8h-10v-4h2v2h8zm3-4h-9v-6h9c1.654 0 3 1.346 3 3s-1.346 3-3 3z"/></g></svg>