<?xml version="1.0" encoding="iso-8859-1"?>
<!-- Generator: Adobe Illustrator 19.0.0, SVG Export Plug-In . SVG Version: 6.00 Build 0)  -->
<svg version="1.1" id="Layer_1" xmlns="http://www.w3.org/2000/svg" xmlns:xlink="http://www.w3.org/1999/xlink" x="0px" y="0px"
	 viewBox="0 0 512 512" style="enable-background:new 0 0 512 512;" xml:space="preserve">
<path style="fill:#E21B1B;" d="M485.216,421.564L485.216,421.564l-70.4-70.336l-15.448-15.432c-17.552-17.528-46-17.512-63.528,0.04
	c-17.528,17.552-17.512,46,0.04,63.528l0,0l26.664,26.64l0.104,0.128l27.016,26.992l58.832,58.776L512,448.316L485.216,421.564z"/>
<ellipse cx="216.96" cy="216.98" rx="216.96" ry="216.88"/>
<ellipse style="fill:#FFFFFF;" cx="216.96" cy="216.98" rx="180.632" ry="180.512"/>
<path style="fill:#CCCCCC;" d="M216.992,377.316c-88.544-0.056-160.28-71.88-160.224-160.424S128.656,56.604,217.2,56.668
	c88.504,0.056,160.224,71.824,160.224,160.328C377.296,305.524,305.528,377.252,216.992,377.316z M216.992,72.66
	c-79.712,0.064-144.28,64.728-144.224,144.432s64.72,144.28,144.432,144.224c79.672-0.056,144.224-64.656,144.224-144.328
	C361.312,137.292,296.696,72.724,216.992,72.66z"/>
<path style="fill:#E81241;" d="M216.992,378.092c-88.976-0.056-161.056-72.232-161-161.2c0.056-88.976,72.232-161.064,161.208-161
	c88.936,0.056,161,72.168,161,161.104C378.064,305.956,305.952,378.02,216.992,378.092z M216.992,59.892
	c-86.768,0.064-157.056,70.448-157,157.208c0.056,86.768,70.44,157.064,157.208,157c86.728-0.056,157.008-70.384,157-157.112
	C374.072,130.236,303.744,59.956,216.992,59.892L216.992,59.892z"/>
<g>
</g>
<g>
</g>
<g>
</g>
<g>
</g>
<g>
</g>
<g>
</g>
<g>
</g>
<g>
</g>
<g>
</g>
<g>
</g>
<g>
</g>
<g>
</g>
<g>
</g>
<g>
</g>
<g>
</g>
</svg>
